<?xml version="1.0" encoding="UTF-8"?>
<svg id="Layer_1" xmlns="http://www.w3.org/2000/svg" version="1.1" viewBox="0 0 100 100">
  <!-- Generator: Adobe Illustrator 30.1.0, SVG Export Plug-In . SVG Version: 2.1.1 Build 136)  -->
  <path d="M49.37,10.15c1.7,3.68,3.59,5.93,9.15,10.86,9.34,8.09,10.69,9.35,13.56,13.56,2.61,3.68,3.95,7.37,3.95,10.69,0,4.22-1.98,8.89-5.3,13.02-2.25,2.78-4.85,5.11-9.51,8.44l-1.35-1.71c.36-.45.81-.89,1.26-1.34,5.3-5.38,6.47-6.82,7.82-9.6,1.26-2.61,1.88-5.03,1.88-7.46,0-5.92-5.74-11.84-19.66-20.19v46.42c0,5.21-.09,5.74-1.34,8.08-2.7,5.29-9.34,9.25-15.54,9.25-3.67,0-6.28-.99-8.07-3.14-1.26-1.62-1.98-3.59-1.98-5.65,0-4.05,2.6-7.72,7.17-10.06,2.42-1.17,5.48-2.06,7.46-2.06,3.31,0,6.09.44,8.16,1.43V10.15h2.34Z"/>
</svg>