<svg xmlns="http://www.w3.org/2000/svg" viewBox="0 0 100 100">
  <path d="M47.82 89.84 C47.63 89.73 46.76 89.55 45.86 89.45 C43.48 89.16 40.82 88.66 40.04 88.37 C39.66 88.23 39.01 88.05 38.58 87.99 C38.16 87.92 37.64 87.73 37.42 87.58 C37.2 87.43 36.86 87.3 36.66 87.3 C36.46 87.3 36.06 87.19 35.77 87.04 C35.49 86.9 34.81 86.58 34.28 86.33 C33.74 86.08 33.17 85.81 33.01 85.73 C32.85 85.64 32.23 85.33 31.64 85.03 C31.05 84.72 30.17 84.21 29.69 83.88 C29.2 83.55 28.68 83.21 28.52 83.13 C27.13 82.46 23.51 79.54 21.8 77.72 C20.07 75.87 19.13 74.64 16.15 70.36 C15.42 69.31 13.28 65.02 13.28 64.6 C13.28 64.45 13.15 64.16 12.99 63.95 C12.84 63.74 12.7 63.4 12.7 63.18 C12.7 62.97 12.57 62.57 12.43 62.29 C12.28 62.01 12.1 61.44 12.02 61.02 C11.94 60.61 11.76 60.03 11.6 59.73 C11.45 59.44 11.33 58.97 11.33 58.68 C11.33 58.4 11.2 57.63 11.04 56.97 C10.52 54.78 10.29 49.77 10.55 46.54 C10.68 44.95 10.91 43.2 11.06 42.65 C11.21 42.09 11.33 41.41 11.33 41.14 C11.33 40.86 11.45 40.3 11.6 39.9 C11.75 39.49 12.06 38.5 12.3 37.7 C12.53 36.89 12.84 35.98 13 35.68 C13.15 35.37 13.28 35.05 13.28 34.95 C13.28 34.73 14.96 31.33 15.44 30.57 C15.65 30.24 15.9 29.8 16.01 29.59 C16.51 28.62 18.72 25.45 19.62 24.42 C20.36 23.57 23.74 20.19 24.52 19.53 C25.71 18.5 28.46 16.57 29.39 16.1 C29.72 15.94 30.24 15.64 30.57 15.43 C31.1 15.09 34.03 13.63 35.45 12.99 C37.81 11.94 41.77 10.89 44.32 10.64 C45.01 10.57 45.82 10.39 46.12 10.24 C46.88 9.85 52.89 9.85 54.02 10.25 C54.47 10.4 55.52 10.58 56.37 10.65 C57.22 10.72 58.22 10.87 58.59 10.98 C58.97 11.08 59.67 11.24 60.16 11.33 C61.21 11.52 62.79 12.03 63.51 12.42 C63.79 12.57 64.16 12.7 64.32 12.7 C64.48 12.7 64.87 12.83 65.17 12.99 C65.47 13.16 65.94 13.37 66.21 13.48 C66.48 13.59 66.85 13.76 67.04 13.87 C67.55 14.16 67.95 14.37 69.14 14.97 C69.73 15.28 70.63 15.81 71.14 16.16 C71.65 16.51 72.12 16.8 72.18 16.8 C72.25 16.8 72.5 16.95 72.75 17.14 C73 17.33 73.39 17.61 73.64 17.77 C75.55 19.05 78.82 22.1 80.33 24.02 C80.88 24.72 81.54 25.51 81.8 25.78 C82.07 26.05 82.5 26.62 82.77 27.05 C83.03 27.48 83.4 27.99 83.57 28.19 C83.94 28.61 84.84 30.11 85.25 30.99 C85.41 31.33 85.63 31.67 85.74 31.74 C85.85 31.8 85.94 32.06 85.94 32.31 C85.94 32.56 86.07 32.87 86.23 33.01 C86.39 33.14 86.52 33.35 86.52 33.47 C86.52 33.6 86.7 34.03 86.91 34.43 C87.13 34.83 87.3 35.31 87.3 35.5 C87.3 35.69 87.43 36.03 87.58 36.25 C87.73 36.46 87.92 36.96 87.99 37.36 C88.07 37.75 88.25 38.17 88.4 38.3 C88.55 38.42 88.67 38.76 88.67 39.04 C88.68 39.32 88.8 39.9 88.94 40.33 C89.09 40.76 89.27 41.77 89.35 42.57 C89.42 43.38 89.61 44.33 89.76 44.7 C90.16 45.65 90.16 54.7 89.76 55.33 C89.61 55.57 89.4 56.42 89.28 57.23 C89.07 58.74 88.79 60.01 88.44 61.04 C88.34 61.36 88.16 61.96 88.06 62.38 C87.96 62.8 87.75 63.32 87.59 63.55 C87.43 63.77 87.3 64.19 87.3 64.47 C87.3 64.76 87.17 65.1 87.01 65.23 C86.85 65.37 86.72 65.58 86.72 65.7 C86.71 66.15 84.78 69.74 83.68 71.36 C83.26 71.99 82.82 72.64 82.71 72.82 C82.06 73.92 79.63 76.76 78.18 78.13 C76.48 79.74 73.02 82.62 72.78 82.62 C72.71 82.62 72.21 82.92 71.68 83.3 C71.14 83.68 70.62 83.98 70.51 83.98 C70.4 83.98 70.31 84.07 70.31 84.18 C70.31 84.28 70.03 84.5 69.68 84.67 C69.33 84.83 68.6 85.19 68.07 85.47 C67.53 85.75 66.69 86.15 66.21 86.38 C65.73 86.6 65.1 86.9 64.81 87.04 C64.53 87.19 64.13 87.31 63.93 87.31 C63.74 87.31 63.31 87.45 62.99 87.62 C62.67 87.79 62.01 88 61.52 88.08 C61.04 88.17 60.38 88.33 60.06 88.44 C59.04 88.79 56.79 89.24 55.37 89.37 C54.62 89.44 53.71 89.62 53.35 89.77 C52.57 90.09 48.34 90.14 47.82 89.84 Z M53.22 80.57 C55.52 80.42 59.35 79.51 60.77 78.78 C61.06 78.64 61.44 78.52 61.61 78.52 C61.79 78.52 62.26 78.34 62.66 78.13 C63.05 77.93 63.51 77.71 63.67 77.65 C63.83 77.59 64.12 77.45 64.31 77.34 C64.49 77.24 64.8 77.06 64.99 76.95 C65.18 76.84 65.55 76.66 65.82 76.55 C66.08 76.44 66.35 76.28 66.4 76.21 C66.46 76.13 66.9 75.81 67.38 75.49 C69.89 73.83 73.53 70.47 74.71 68.73 C75.03 68.26 75.4 67.8 75.54 67.71 C75.67 67.63 75.78 67.47 75.78 67.37 C75.78 67.27 76.07 66.77 76.42 66.26 C76.77 65.75 77.31 64.82 77.62 64.2 C77.92 63.58 78.25 63.03 78.35 62.97 C78.44 62.91 78.52 62.62 78.52 62.32 C78.52 62.01 78.65 61.66 78.81 61.52 C78.97 61.39 79.1 61.11 79.1 60.91 C79.1 60.7 79.24 60.21 79.41 59.81 C79.82 58.85 80.21 57.46 80.57 55.66 C80.73 54.86 80.94 53.8 81.05 53.32 C81.38 51.74 81.29 47.67 80.86 45.51 C80.64 44.42 80.47 43.32 80.47 43.08 C80.47 42.83 80.34 42.31 80.18 41.92 C80.01 41.54 79.88 40.92 79.88 40.56 C79.88 40.19 79.75 39.78 79.59 39.65 C79.43 39.51 79.24 39.06 79.17 38.65 C79.11 38.24 78.93 37.8 78.78 37.68 C78.64 37.55 78.52 37.25 78.52 37.01 C78.52 36.77 78.39 36.46 78.23 36.33 C78.07 36.2 77.89 35.92 77.82 35.7 C77.64 35.15 76.75 34.39 76.27 34.38 C76.05 34.38 75.39 34.69 74.8 35.08 C74.21 35.47 72.82 36.33 71.71 36.99 C70.6 37.64 69.46 38.33 69.17 38.52 C68.89 38.7 68.39 38.99 68.07 39.16 C67.28 39.57 67.22 39.6 64.26 41.53 C62.54 42.64 62.21 42.84 61.43 43.25 C61.1 43.42 60.58 43.72 60.25 43.93 C59.93 44.14 59.14 44.59 58.5 44.92 C57.85 45.26 57.06 45.7 56.74 45.91 C56.42 46.11 55.8 46.48 55.37 46.72 C54.94 46.96 54.41 47.27 54.2 47.4 C53.98 47.54 53.54 47.78 53.22 47.95 C52.51 48.31 52.01 48.62 51.4 49.07 C51.08 49.3 50.83 49.35 50.61 49.23 C50.31 49.07 50.28 47.83 50.23 34.54 C50.21 26.55 50.14 19.87 50.08 19.7 C50.03 19.52 49.87 19.33 49.73 19.28 C49.27 19.1 44.63 19.53 43.89 19.83 C43.49 19.99 42.87 20.12 42.53 20.12 C42.18 20.13 41.73 20.26 41.53 20.41 C41.32 20.56 40.78 20.74 40.31 20.81 C39.85 20.88 39.36 21.06 39.24 21.21 C39.12 21.36 38.87 21.48 38.7 21.48 C38.53 21.48 37.77 21.78 37.02 22.15 C36.26 22.51 35.51 22.87 35.35 22.93 C32.74 24.01 27.23 28.89 24.94 32.18 C24.54 32.74 24.22 33.26 24.22 33.33 C24.22 33.41 24.1 33.6 23.95 33.77 C23.8 33.94 23.4 34.57 23.07 35.16 C22.47 36.22 22.25 36.67 21.77 37.79 C21.63 38.12 21.39 38.69 21.22 39.06 C20.81 40.01 20.2 42.16 19.8 44.14 C19.32 46.48 19.32 54.17 19.8 55.44 C19.97 55.91 20.12 56.53 20.12 56.81 C20.12 57.1 20.39 58.07 20.72 58.99 C21.06 59.9 21.37 60.84 21.43 61.08 C21.48 61.32 21.65 61.61 21.8 61.74 C21.95 61.86 22.07 62.06 22.07 62.18 C22.07 62.52 23.48 65.23 24.33 66.53 C26.11 69.27 29.4 72.86 31.34 74.17 C31.77 74.46 32.17 74.75 32.23 74.8 C32.35 74.93 33.59 75.75 34.77 76.49 C35.57 76.99 36.02 77.23 37.79 78.07 C38.46 78.38 42.56 79.71 44.04 80.08 C45.24 80.39 49.85 80.84 50.78 80.75 C51.16 80.71 52.26 80.63 53.22 80.57 Z" fill="#000000" fill-rule="evenodd"/>
</svg>
